<svg xmlns="http://www.w3.org/2000/svg" width="173.515" height="147.488" viewBox="0 0 173.515 147.488">
    <defs>
        <style>
            .cls-1{fill:#d1d4d1}.cls-2{fill:#8697cb}.cls-3{fill:#d75a4a}
        </style>
    </defs>
    <g id="barcode" transform="translate(0 -4.5)">
        <path id="Path_498" d="M6.892 85.446A2.891 2.891 0 0 1 4 82.554V33.392a2.892 2.892 0 0 1 5.784 0v49.162a2.891 2.891 0 0 1-2.892 2.892z" class="cls-1" data-name="Path 498" transform="translate(7.568 49.19)"/>
        <path id="Path_499" d="M56.892 85.446A2.891 2.891 0 0 1 54 82.554V33.392a2.892 2.892 0 0 1 5.784 0v49.162a2.891 2.891 0 0 1-2.892 2.892z" class="cls-1" data-name="Path 499" transform="translate(102.163 49.19)"/>
        <path id="Path_500" d="M10.892 62.311A2.891 2.891 0 0 1 8 59.419V33.392a2.892 2.892 0 0 1 5.784 0v26.027a2.891 2.891 0 0 1-2.892 2.892z" class="cls-1" data-name="Path 500" transform="translate(15.135 49.19)"/>
        <path id="Path_501" d="M13.892 62.311A2.891 2.891 0 0 1 11 59.419V33.392a2.892 2.892 0 0 1 5.784 0v26.027a2.891 2.891 0 0 1-2.892 2.892z" class="cls-1" data-name="Path 501" transform="translate(20.811 49.19)"/>
        <path id="Path_502" d="M18.892 62.311A2.891 2.891 0 0 1 16 59.419V33.392a2.892 2.892 0 0 1 5.784 0v26.027a2.891 2.891 0 0 1-2.892 2.892z" class="cls-1" data-name="Path 502" transform="translate(30.271 49.19)"/>
        <path id="Path_503" d="M21.892 62.311A2.891 2.891 0 0 1 19 59.419V33.392a2.892 2.892 0 0 1 5.784 0v26.027a2.891 2.891 0 0 1-2.892 2.892z" class="cls-1" data-name="Path 503" transform="translate(35.946 49.19)"/>
        <path id="Path_504" d="M24.892 62.311A2.891 2.891 0 0 1 22 59.419V33.392a2.892 2.892 0 0 1 5.784 0v26.027a2.891 2.891 0 0 1-2.892 2.892z" class="cls-1" data-name="Path 504" transform="translate(41.622 49.19)"/>
        <path id="Path_505" d="M30.892 62.311A2.891 2.891 0 0 1 28 59.419V33.392a2.892 2.892 0 0 1 5.784 0v26.027a2.891 2.891 0 0 1-2.892 2.892z" class="cls-1" data-name="Path 505" transform="translate(52.974 49.19)"/>
        <path id="Path_506" d="M35.892 62.311A2.891 2.891 0 0 1 33 59.419V33.392a2.892 2.892 0 0 1 5.784 0v26.027a2.891 2.891 0 0 1-2.892 2.892z" class="cls-1" data-name="Path 506" transform="translate(62.433 49.19)"/>
        <path id="Path_507" d="M38.892 62.311A2.891 2.891 0 0 1 36 59.419V33.392a2.892 2.892 0 0 1 5.784 0v26.027a2.891 2.891 0 0 1-2.892 2.892z" class="cls-1" data-name="Path 507" transform="translate(68.109 49.19)"/>
        <path id="Path_508" d="M43.892 62.311A2.891 2.891 0 0 1 41 59.419V33.392a2.892 2.892 0 0 1 5.784 0v26.027a2.891 2.891 0 0 1-2.892 2.892z" class="cls-1" data-name="Path 508" transform="translate(77.569 49.19)"/>
        <path id="Path_509" d="M46.892 62.311A2.891 2.891 0 0 1 44 59.419V33.392a2.892 2.892 0 0 1 5.784 0v26.027a2.891 2.891 0 0 1-2.892 2.892z" class="cls-1" data-name="Path 509" transform="translate(83.244 49.19)"/>
        <path id="Path_510" d="M52.892 62.311A2.891 2.891 0 0 1 50 59.419V33.392a2.892 2.892 0 0 1 5.784 0v26.027a2.891 2.891 0 0 1-2.892 2.892z" class="cls-1" data-name="Path 510" transform="translate(94.596 49.19)"/>
        <path id="Path_511" d="M6.892 56.771A2.891 2.891 0 0 1 4 53.879V13.392a2.892 2.892 0 0 1 5.784 0v40.487a2.891 2.891 0 0 1-2.892 2.892z" class="cls-1" data-name="Path 511" transform="translate(7.568 11.351)"/>
        <path id="Path_512" d="M56.892 56.771A2.891 2.891 0 0 1 54 53.879V13.392a2.892 2.892 0 0 1 5.784 0v40.487a2.891 2.891 0 0 1-2.892 2.892z" class="cls-1" data-name="Path 512" transform="translate(102.163 11.351)"/>
        <path id="Path_513" d="M10.892 56.771A2.891 2.891 0 0 1 8 53.879V13.392a2.892 2.892 0 0 1 5.784 0v40.487a2.891 2.891 0 0 1-2.892 2.892z" class="cls-1" data-name="Path 513" transform="translate(15.135 11.351)"/>
        <path id="Path_514" d="M13.892 56.771A2.891 2.891 0 0 1 11 53.879V13.392a2.892 2.892 0 0 1 5.784 0v40.487a2.891 2.891 0 0 1-2.892 2.892z" class="cls-1" data-name="Path 514" transform="translate(20.811 11.351)"/>
        <path id="Path_515" d="M18.892 56.771A2.891 2.891 0 0 1 16 53.879V13.392a2.892 2.892 0 0 1 5.784 0v40.487a2.891 2.891 0 0 1-2.892 2.892z" class="cls-1" data-name="Path 515" transform="translate(30.271 11.351)"/>
        <path id="Path_516" d="M21.892 56.771A2.891 2.891 0 0 1 19 53.879V13.392a2.892 2.892 0 0 1 5.784 0v40.487a2.891 2.891 0 0 1-2.892 2.892z" class="cls-1" data-name="Path 516" transform="translate(35.946 11.351)"/>
        <path id="Path_517" d="M24.892 56.771A2.891 2.891 0 0 1 22 53.879V13.392a2.892 2.892 0 0 1 5.784 0v40.487a2.891 2.891 0 0 1-2.892 2.892z" class="cls-1" data-name="Path 517" transform="translate(41.622 11.351)"/>
        <path id="Path_518" d="M30.892 56.771A2.891 2.891 0 0 1 28 53.879V13.392a2.892 2.892 0 1 1 5.784 0v40.487a2.891 2.891 0 0 1-2.892 2.892z" class="cls-1" data-name="Path 518" transform="translate(52.974 11.351)"/>
        <path id="Path_519" d="M35.892 56.771A2.891 2.891 0 0 1 33 53.879V13.392a2.892 2.892 0 0 1 5.784 0v40.487a2.891 2.891 0 0 1-2.892 2.892z" class="cls-1" data-name="Path 519" transform="translate(62.433 11.351)"/>
        <path id="Path_520" d="M38.892 56.771A2.891 2.891 0 0 1 36 53.879V13.392a2.892 2.892 0 0 1 5.784 0v40.487a2.891 2.891 0 0 1-2.892 2.892z" class="cls-1" data-name="Path 520" transform="translate(68.109 11.351)"/>
        <path id="Path_521" d="M43.892 56.771A2.891 2.891 0 0 1 41 53.879V13.392a2.892 2.892 0 0 1 5.784 0v40.487a2.891 2.891 0 0 1-2.892 2.892z" class="cls-1" data-name="Path 521" transform="translate(77.569 11.351)"/>
        <path id="Path_522" d="M46.892 56.771A2.891 2.891 0 0 1 44 53.879V13.392a2.892 2.892 0 0 1 5.784 0v40.487a2.891 2.891 0 0 1-2.892 2.892z" class="cls-1" data-name="Path 522" transform="translate(83.244 11.351)"/>
        <path id="Path_523" d="M52.892 56.771A2.891 2.891 0 0 1 50 53.879V13.392a2.892 2.892 0 0 1 5.784 0v40.487a2.891 2.891 0 0 1-2.892 2.892z" class="cls-1" data-name="Path 523" transform="translate(94.596 11.351)"/>
        <path id="Path_524" d="M10.892 53.176A2.891 2.891 0 0 1 8 50.284v-2.892a2.892 2.892 0 1 1 5.784 0v2.892a2.891 2.891 0 0 1-2.892 2.892z" class="cls-1" data-name="Path 524" transform="translate(15.135 75.677)"/>
        <path id="Path_525" d="M13.892 53.176A2.891 2.891 0 0 1 11 50.284v-2.892a2.892 2.892 0 1 1 5.784 0v2.892a2.891 2.891 0 0 1-2.892 2.892z" class="cls-1" data-name="Path 525" transform="translate(20.811 75.677)"/>
        <path id="Path_526" d="M16.892 53.176A2.891 2.891 0 0 1 14 50.284v-2.892a2.892 2.892 0 1 1 5.784 0v2.892a2.891 2.891 0 0 1-2.892 2.892z" class="cls-1" data-name="Path 526" transform="translate(26.487 75.677)"/>
        <path id="Path_527" d="M19.892 53.176A2.891 2.891 0 0 1 17 50.284v-2.892a2.892 2.892 0 1 1 5.784 0v2.892a2.891 2.891 0 0 1-2.892 2.892z" class="cls-1" data-name="Path 527" transform="translate(32.163 75.677)"/>
        <path id="Path_528" d="M22.892 53.176A2.891 2.891 0 0 1 20 50.284v-2.892a2.892 2.892 0 1 1 5.784 0v2.892a2.891 2.891 0 0 1-2.892 2.892z" class="cls-1" data-name="Path 528" transform="translate(37.838 75.677)"/>
        <path id="Path_529" d="M25.892 53.176A2.891 2.891 0 0 1 23 50.284v-2.892a2.892 2.892 0 1 1 5.784 0v2.892a2.891 2.891 0 0 1-2.892 2.892z" class="cls-1" data-name="Path 529" transform="translate(43.514 75.677)"/>
        <path id="Path_530" d="M28.892 53.176A2.891 2.891 0 0 1 26 50.284v-2.892a2.892 2.892 0 0 1 5.784 0v2.892a2.891 2.891 0 0 1-2.892 2.892z" class="cls-1" data-name="Path 530" transform="translate(49.19 75.677)"/>
        <path id="Path_531" d="M31.892 53.176A2.891 2.891 0 0 1 29 50.284v-2.892a2.892 2.892 0 1 1 5.784 0v2.892a2.891 2.891 0 0 1-2.892 2.892z" class="cls-1" data-name="Path 531" transform="translate(54.866 75.677)"/>
        <path id="Path_532" d="M34.892 53.176A2.891 2.891 0 0 1 32 50.284v-2.892a2.892 2.892 0 1 1 5.784 0v2.892a2.891 2.891 0 0 1-2.892 2.892z" class="cls-1" data-name="Path 532" transform="translate(60.541 75.677)"/>
        <path id="Path_533" d="M37.892 53.176A2.891 2.891 0 0 1 35 50.284v-2.892a2.892 2.892 0 1 1 5.784 0v2.892a2.891 2.891 0 0 1-2.892 2.892z" class="cls-1" data-name="Path 533" transform="translate(66.217 75.677)"/>
        <path id="Path_534" d="M40.892 53.176A2.891 2.891 0 0 1 38 50.284v-2.892a2.892 2.892 0 1 1 5.784 0v2.892a2.891 2.891 0 0 1-2.892 2.892z" class="cls-1" data-name="Path 534" transform="translate(71.893 75.677)"/>
        <path id="Path_535" d="M43.892 53.176A2.891 2.891 0 0 1 41 50.284v-2.892a2.892 2.892 0 1 1 5.784 0v2.892a2.891 2.891 0 0 1-2.892 2.892z" class="cls-1" data-name="Path 535" transform="translate(77.569 75.677)"/>
        <path id="Path_536" d="M46.892 53.176A2.891 2.891 0 0 1 44 50.284v-2.892a2.892 2.892 0 1 1 5.784 0v2.892a2.891 2.891 0 0 1-2.892 2.892z" class="cls-1" data-name="Path 536" transform="translate(83.244 75.677)"/>
        <path id="Path_537" d="M49.892 53.176A2.891 2.891 0 0 1 47 50.284v-2.892a2.892 2.892 0 1 1 5.784 0v2.892a2.891 2.891 0 0 1-2.892 2.892z" class="cls-1" data-name="Path 537" transform="translate(88.92 75.677)"/>
        <path id="Path_538" d="M52.892 53.176A2.891 2.891 0 0 1 50 50.284v-2.892a2.892 2.892 0 1 1 5.784 0v2.892a2.891 2.891 0 0 1-2.892 2.892z" class="cls-1" data-name="Path 538" transform="translate(94.596 75.677)"/>
        <g id="Group_764" data-name="Group 764" transform="translate(0 128.852)">
            <path id="Path_539" d="M23.135 70.635H0V50.392a2.892 2.892 0 1 1 5.784 0v14.46h17.351a2.892 2.892 0 1 1 0 5.784z" class="cls-2" data-name="Path 539" transform="translate(0 -47.5)"/>
            <path id="Path_540" d="M75.135 70.635H54.892a2.892 2.892 0 1 1 0-5.784h14.46V50.392a2.892 2.892 0 1 1 5.784 0z" class="cls-2" data-name="Path 540" transform="translate(98.38 -47.5)"/>
        </g>
        <g id="Group_765" data-name="Group 765" transform="translate(0 4.5)">
            <path id="Path_541" d="M74.135 27.635a2.891 2.891 0 0 1-2.892-2.892V10.284H53.892a2.892 2.892 0 0 1 0-5.784h23.135v20.243a2.891 2.891 0 0 1-2.892 2.892z" class="cls-2" data-name="Path 541" transform="translate(96.488 -4.5)"/>
            <path id="Path_542" d="M2.892 27.635A2.891 2.891 0 0 1 0 24.743V4.5h20.243a2.892 2.892 0 1 1 0 5.784H5.784v14.46a2.891 2.891 0 0 1-2.892 2.891z" class="cls-2" data-name="Path 542" transform="translate(0 -4.5)"/>
        </g>
        <path id="Path_543" d="M170.623 33.284H2.892a2.892 2.892 0 0 1 0-5.784h167.731a2.892 2.892 0 1 1 0 5.784z" class="cls-3" data-name="Path 543" transform="translate(0 43.514)"/>
    </g>
</svg>
