<svg xmlns="http://www.w3.org/2000/svg" width="21.654" height="16.543" viewBox="0 0 21.654 16.543">
    <defs>
        <style>
            .cls-1{fill:#727272}
        </style>
    </defs>
    <g id="Group_382" data-name="Group 382" transform="translate(-14.053 -263)">
        <g id="open-book" transform="translate(14.053 227.952)">
            <g id="Group_350" data-name="Group 350" transform="translate(0 35.048)">
                <g id="Group_349" data-name="Group 349">
                    <path id="Path_415" d="M35.606 35.049a.764.764 0 0 0-.543.225.772.772 0 0 0-.228.55v11.619a.777.777 0 0 0 .776.775 9.585 9.585 0 0 1 6.91 2.562V38.62a.743.743 0 0 0-.107-.392c-1.714-2.756-5.001-3.175-6.808-3.179z" class="cls-1" data-name="Path 415" transform="translate(-32.293 -35.049)"/>
                    <path id="Path_416" d="M164.437 47.442V35.823a.772.772 0 0 0-.228-.55.764.764 0 0 0-.543-.225c-1.808 0-5.1.423-6.806 3.178a.742.742 0 0 0-.106.392v12.16a9.585 9.585 0 0 1 6.91-2.562.777.777 0 0 0 .773-.774z" class="cls-1" data-name="Path 416" transform="translate(-145.323 -35.048)"/>
                    <path id="Path_417" d="M179.858 71.8h-.558v9.714a1.982 1.982 0 0 1-1.976 1.978 8.594 8.594 0 0 0-5.839 1.994 18.653 18.653 0 0 1 8.2.158.775.775 0 0 0 .948-.755V72.576a.776.776 0 0 0-.775-.776z" class="cls-1" data-name="Path 417" transform="translate(-158.98 -69.121)"/>
                    <path id="Path_418" d="M1.337 81.515V71.8H.775a.776.776 0 0 0-.775.776V84.89a.775.775 0 0 0 .948.755 18.652 18.652 0 0 1 8.2-.158 8.594 8.594 0 0 0-5.839-1.993 1.982 1.982 0 0 1-1.972-1.979z" class="cls-1" data-name="Path 418" transform="translate(0 -69.121)"/>
                </g>
            </g>
        </g>
    </g>
</svg>
