<svg id="File_Upload" data-name="File Upload" xmlns="http://www.w3.org/2000/svg" width="48" height="48" viewBox="0 0 48 48">
  <rect id="Rectangle_3" data-name="Rectangle 3" width="48" height="48" fill="none"/>
  <g id="Group_806" data-name="Group 806" transform="translate(14935.683 1120.864)">
    <path id="_1024" d="M145.914,75.1a2.1,2.1,0,0,1-2.114-2.072V53.072A2.1,2.1,0,0,1,145.914,51h11.635a2.147,2.147,0,0,1,1.5.611l3.589,3.528a2.031,2.031,0,0,1,.616,1.462V73.032a2.1,2.1,0,0,1-2.114,2.072Z" transform="translate(-15065.071 -1159.444)" fill="none"/>
    <path id="_1024-2" d="M142.372,35.94a1.713,1.713,0,0,1,1.195.494l3.589,3.526a1.633,1.633,0,0,1,.5,1.163V57.554a1.675,1.675,0,0,1-1.7,1.647H130.732a1.684,1.684,0,0,1-1.694-1.66V37.581a1.675,1.675,0,0,1,1.7-1.644h11.635m-.005-.838H130.732a2.511,2.511,0,0,0-2.532,2.492v19.96a2.506,2.506,0,0,0,2.524,2.5h15.224a2.515,2.515,0,0,0,2.54-2.49V41.125a2.467,2.467,0,0,0-.74-1.766l-3.587-3.531A2.555,2.555,0,0,0,142.367,35.1Z" transform="translate(-15049.883 -1143.963)"/>
    <path id="Path_460" data-name="Path 460" d="M6.941,2.477l.011,0H2.031L3.578.93a.406.406,0,0,0,0-.571L3.337.118a.4.4,0,0,0-.568,0L.117,2.769a.405.405,0,0,0,0,.57L2.769,5.991a.4.4,0,0,0,.568,0l.241-.241A.4.4,0,0,0,3.7,5.466a.386.386,0,0,0-.117-.279L2.014,3.628H6.946a.417.417,0,0,0,.408-.413V2.875A.409.409,0,0,0,6.941,2.477Z" transform="translate(-14908.486 -1100.067) rotate(90)"/>
  </g>
</svg>
