<svg xmlns="http://www.w3.org/2000/svg" width="21.486" height="20.801" viewBox="0 0 21.486 20.801">
    <defs>
        <style>
            .cls-1{fill:#ef7f1a}
        </style>
    </defs>
    <g id="house-black-silhouette-without-door" transform="translate(0 -4.89)">
        <path id="Path_457" d="M21.216 15.039a1.024 1.024 0 0 0-.084-1.466l-9.6-8.4a1.2 1.2 0 0 0-1.561.018l-9.637 8.83a1.019 1.019 0 0 0-.046 1.464l.242.252a1.053 1.053 0 0 0 1.446.111L2.7 15.2v9.441a1.048 1.048 0 0 0 1.048 1.048H7.5a1.048 1.048 0 0 0 1.048-1.048v-6.6h4.79v6.6a.99.99 0 0 0 .985 1.048H18.3a1.048 1.048 0 0 0 1.048-1.048v-9.306l.444.39c.245.215.759.043 1.149-.386z" class="cls-1" data-name="Path 457"/>
    </g>
</svg>
