<svg id="Image_Upload" data-name="Image Upload" xmlns="http://www.w3.org/2000/svg" width="48" height="48" viewBox="0 0 48 48">
  <rect id="Rectangle_3" data-name="Rectangle 3" width="48" height="48" fill="none"/>
  <g id="Group_807" data-name="Group 807" transform="translate(14681.311 1117.059)">
    <path id="Path_502" data-name="Path 502" d="M183,100.818a2.251,2.251,0,1,0-2.25-2.25A2.253,2.253,0,0,0,183,100.818Zm0-3.181a.931.931,0,1,1-.931.931A.932.932,0,0,1,183,97.636Zm0,0" transform="translate(-14842.107 -1197.159)"/>
    <path id="Path_503" data-name="Path 503" d="M21.7.5H.823A.824.824,0,0,0,0,1.323V19a.824.824,0,0,0,.823.823H21.7A.824.824,0,0,0,22.527,19V1.323A.824.824,0,0,0,21.7.5Zm-.5,1.32V12.266L17.056,8.114a.7.7,0,0,0-.981,0L10.2,13.986l-3.75-3.75a.694.694,0,0,0-.982,0L1.32,14.386V1.82ZM1.32,18.5V16.253l4.642-4.642,3.75,3.75a.694.694,0,0,0,.982,0L16.565,9.49l4.642,4.642V18.5Zm0,0" transform="translate(-14669.311 -1105.559)"/>
    <text id="_" data-name="+" transform="translate(-14653 -1081.5)" stroke="#e5dfdb" stroke-width="0.5" font-size="22" font-family="ProximaNova-Regular, Proxima Nova"><tspan x="0" y="0">+</tspan></text>
  </g>
</svg>
