<svg xmlns="http://www.w3.org/2000/svg" id="box" width="38.402" height="31.651" viewBox="0 0 38.402 31.651">
    <defs>
        <style>
            .cls-1{fill:#ffcc73}.cls-1,.cls-2,.cls-3,.cls-4,.cls-5,.cls-6,.cls-7,.cls-8,.cls-9{fill-rule:evenodd}.cls-2{fill:#f59556}.cls-3{fill:#e8e8e8}.cls-4{fill:#ccc}.cls-5{fill:#d65036}.cls-6{fill:#55b8e6}.cls-7{fill:#507fcf}.cls-8{fill:gray}.cls-9{fill:#525252}
        </style>
    </defs>
    <g id="Group_649" data-name="Group 649" transform="translate(.567 .529)">
        <path id="Path_459" d="M147.559 8.579v12.4l7.525 1.662 7.837-1.662v-12.4a1.527 1.527 0 0 0-1.521-1.524h-12.32a1.527 1.527 0 0 0-1.521 1.524zm0 0" class="cls-1" data-name="Path 459" transform="translate(-137.058 -7.055)"/>
        <path id="Path_460" d="M147.559 8.579v12.4h2.211v-12.4a1.527 1.527 0 0 1 1.522-1.524h-2.212a1.527 1.527 0 0 0-1.521 1.524zm0 0" class="cls-2" data-name="Path 460" transform="translate(-137.058 -7.055)"/>
        <path id="Path_461" d="M210.371 10.424h4.415a.725.725 0 0 0 .72-.724V7.055h-5.858V9.7a.725.725 0 0 0 .723.724zm0 0" class="cls-3" data-name="Path 461" transform="translate(-194.491 -7.055)"/>
        <path id="Path_462" d="M209.648 9.7a.725.725 0 0 0 .723.724h1.36a.725.725 0 0 1-.722-.724V7.055h-1.361zm0 0" class="cls-4" data-name="Path 462" transform="translate(-194.491 -7.055)"/>
        <path id="Path_463" d="M51.625 194.176v12.4l7.525 1.662 7.837-1.662 1.35-6.626-1.35-5.77c-.191-.817-.684-1.524-1.522-1.524H53.147a1.527 1.527 0 0 0-1.522 1.52zm0 0" class="cls-2" data-name="Path 463" transform="translate(-48.32 -178.732)"/>
        <path id="Path_464" d="M51.625 194.176v12.4c.61-.017 1.354-.008 2.211-.019v-12.381a1.527 1.527 0 0 1 1.522-1.524h-2.211a1.527 1.527 0 0 0-1.522 1.524zm0 0" class="cls-5" data-name="Path 464" transform="translate(-48.32 -178.732)"/>
        <path id="Path_465" d="M114.467 196.022h4.415a.723.723 0 0 0 .72-.724v-2.646h-5.856v2.648a.724.724 0 0 0 .721.722zm0 0" class="cls-3" data-name="Path 465" transform="translate(-105.782 -178.732)"/>
        <path id="Path_466" d="M113.746 195.3a.724.724 0 0 0 .721.724h1.36a.725.725 0 0 1-.723-.724v-2.646h-1.358zm0 0" class="cls-4" data-name="Path 466" transform="translate(-105.782 -178.732)"/>
        <path id="Path_467" d="M256.441 194.176v12.4c1.611-.045 4.474 1.669 7.524 1.662 2.481 0 4.987-1.709 7.837-1.7v-12.362a1.527 1.527 0 0 0-1.522-1.524h-12.317a1.527 1.527 0 0 0-1.522 1.524zm0 0" class="cls-6" data-name="Path 467" transform="translate(-237.774 -178.732)"/>
        <path id="Path_468" d="M256.441 194.176v12.4l2.211-.019v-12.381a1.527 1.527 0 0 1 1.522-1.524h-2.211a1.527 1.527 0 0 0-1.522 1.524zm0 0" class="cls-7" data-name="Path 468" transform="translate(-237.774 -178.732)"/>
        <path id="Path_469" d="M319.254 196.022h4.413a.725.725 0 0 0 .722-.724v-2.646h-5.858v2.648a.725.725 0 0 0 .723.722zm0 0" class="cls-3" data-name="Path 469" transform="translate(-295.207 -178.732)"/>
        <path id="Path_470" d="M318.531 195.3a.725.725 0 0 0 .723.724h1.36a.725.725 0 0 1-.723-.724v-2.646h-1.361zm0 0" class="cls-4" data-name="Path 470" transform="translate(-295.207 -178.732)"/>
        <path id="Path_471" d="M8.9 378a1.348 1.348 0 0 0 0 2.7h34.579a1.33 1.33 0 0 0 .793-.26 1.348 1.348 0 0 0-.793-2.44zm0 0" class="cls-8" data-name="Path 471" transform="translate(-7.559 -350.174)"/>
        <path id="Path_472" d="M8.9 378a1.348 1.348 0 0 0 0 2.7h2.5a1.349 1.349 0 0 1-.4-2.637.054.054 0 0 0 .015 0A1.321 1.321 0 0 1 11.4 378zm0 0" class="cls-9" data-name="Path 472" transform="translate(-7.559 -350.174)"/>
    </g>
    <path id="Path_473" d="M36.487 27.822h-1.325V16.01a2.091 2.091 0 0 0-2.089-2.089H27V9.612a.567.567 0 0 0-.567-.568.567.567 0 0 0-.567.567v4.309h-5.11a2.082 2.082 0 0 0-1.522.661 2.081 2.081 0 0 0-1.522-.661h-6.078V2.089a.956.956 0 0 1 .955-.954h2.569v2.078A1.292 1.292 0 0 0 16.447 4.5h4.415a1.291 1.291 0 0 0 1.288-1.291V1.135h2.758a.956.956 0 0 1 .955.955v4.857a.567.567 0 1 0 1.134 0V2.089A2.091 2.091 0 0 0 24.907 0H12.589A2.091 2.091 0 0 0 10.5 2.089V13.92H5.394a2.091 2.091 0 0 0-2.089 2.09v11.812H1.912a1.915 1.915 0 0 0 0 3.83h34.575a1.915 1.915 0 0 0 0-3.83zM21.016 3.213a.157.157 0 0 1-.154.156h-4.415a.158.158 0 0 1-.156-.156V1.135h4.725zm3.442 11.842h4.724v2.078a.157.157 0 0 1-.156.154h-4.412a.157.157 0 0 1-.156-.154zm-3.7 0h2.569v2.078a1.291 1.291 0 0 0 1.289 1.289h4.413a1.291 1.291 0 0 0 1.289-1.289v-2.078h2.758a.956.956 0 0 1 .955.954v11.813H19.8V16.01a.956.956 0 0 1 .956-.955zm-11.657 0h4.719v2.078a.156.156 0 0 1-.154.154H9.252a.154.154 0 0 1-.154-.154zm27.386 15.461H1.912a.78.78 0 0 1 0-1.56h7.982a.568.568 0 0 0 0-1.135H4.439V16.01a.956.956 0 0 1 .955-.954h2.571v2.078a1.29 1.29 0 0 0 1.287 1.289h4.415a1.29 1.29 0 0 0 1.287-1.289v-2.079h2.758a.956.956 0 0 1 .955.954v11.813h-6.176a.568.568 0 0 0 0 1.135h24a.78.78 0 1 1 0 1.56zm0 0" data-name="Path 473"/>
</svg>
