<svg xmlns="http://www.w3.org/2000/svg" id="box" width="37.119" height="30.594" viewBox="0 0 37.119 30.594">
    <defs>
        <style>
            .cls-1{fill:#d5d5d5}.cls-1,.cls-2,.cls-3,.cls-4,.cls-5,.cls-6,.cls-7,.cls-8{fill-rule:evenodd}.cls-2{fill:none}.cls-3{fill:#e8e8e8}.cls-4{fill:#ccc}.cls-5{fill:#adadad}.cls-6{fill:#676767}.cls-7{fill:gray}.cls-8{fill:#525252}
        </style>
    </defs>
    <g id="Group_649" data-name="Group 649" transform="translate(.548 .511)">
        <path id="Path_459" d="M147.559 8.528V20.51l7.273 1.607 7.575-1.607V8.528a1.476 1.476 0 0 0-1.471-1.473h-11.907a1.476 1.476 0 0 0-1.47 1.473zm0 0" class="cls-1" data-name="Path 459" transform="translate(-137.409 -7.055)"/>
        <path id="Path_460" d="M147.559 8.528V20.51h2.141V8.528a1.476 1.476 0 0 1 1.471-1.473h-2.137a1.476 1.476 0 0 0-1.475 1.473zm0 0" class="cls-2" data-name="Path 460" transform="translate(-137.409 -7.055)"/>
        <path id="Path_461" d="M210.347 10.312h4.267a.7.7 0 0 0 .7-.7V7.055h-5.662v2.557a.7.7 0 0 0 .695.7zm0 0" class="cls-3" data-name="Path 461" transform="translate(-194.998 -7.055)"/>
        <path id="Path_462" d="M209.648 9.612a.7.7 0 0 0 .7.7h1.315a.7.7 0 0 1-.7-.7V7.055h-1.315zm0 0" class="cls-4" data-name="Path 462" transform="translate(-194.998 -7.055)"/>
        <path id="Path_463" d="M51.625 194.126v11.982l7.273 1.607 7.575-1.607 1.3-6.4-1.3-5.577c-.185-.79-.662-1.473-1.471-1.473H53.1a1.476 1.476 0 0 0-1.475 1.468zm0 0" class="cls-5" data-name="Path 463" transform="translate(-48.43 -179.197)"/>
        <path id="Path_464" d="M51.625 194.126v11.982c.59-.016 1.309-.008 2.137-.018v-11.964a1.476 1.476 0 0 1 1.471-1.473H53.1a1.476 1.476 0 0 0-1.475 1.473zm0 0" class="cls-2" data-name="Path 464" transform="translate(-48.43 -179.197)"/>
        <path id="Path_465" d="M114.443 195.909h4.267a.7.7 0 0 0 .7-.7v-2.558h-5.66v2.558a.7.7 0 0 0 .693.7zm0 0" class="cls-3" data-name="Path 465" transform="translate(-106.048 -179.197)"/>
        <path id="Path_466" d="M113.746 195.21a.7.7 0 0 0 .7.7h1.315a.7.7 0 0 1-.7-.7v-2.558h-1.313zm0 0" class="cls-4" data-name="Path 466" transform="translate(-106.048 -179.197)"/>
        <path id="Path_467" d="M256.441 194.126v11.982c1.557-.043 4.325 1.613 7.273 1.607 2.4 0 4.82-1.652 7.575-1.644v-11.945a1.476 1.476 0 0 0-1.471-1.473h-11.906a1.476 1.476 0 0 0-1.471 1.473zm0 0" class="cls-6" data-name="Path 467" transform="translate(-238.398 -179.197)"/>
        <path id="Path_468" d="M256.441 194.126v11.982l2.137-.018v-11.964a1.476 1.476 0 0 1 1.471-1.473h-2.137a1.476 1.476 0 0 0-1.471 1.473zm0 0" class="cls-2" data-name="Path 468" transform="translate(-238.398 -179.197)"/>
        <path id="Path_469" d="M319.23 195.909h4.27a.7.7 0 0 0 .7-.7v-2.558h-5.662v2.558a.7.7 0 0 0 .692.7zm0 0" class="cls-3" data-name="Path 469" transform="translate(-295.987 -179.197)"/>
        <path id="Path_470" d="M318.531 195.21a.7.7 0 0 0 .7.7h1.315a.7.7 0 0 1-.7-.7v-2.558h-1.315zm0 0" class="cls-4" data-name="Path 470" transform="translate(-295.987 -179.197)"/>
        <path id="Path_471" d="M8.859 378a1.3 1.3 0 0 0 0 2.607h33.42a1.285 1.285 0 0 0 .766-.251 1.3 1.3 0 0 0-.766-2.356zm0 0" class="cls-7" data-name="Path 471" transform="translate(-7.559 -351.104)"/>
        <path id="Path_472" d="M8.859 378a1.3 1.3 0 0 0 0 2.607h2.412a1.3 1.3 0 0 1-.382-2.549.053.053 0 0 0 .014 0 1.277 1.277 0 0 1 .368-.054zm0 0" class="cls-8" data-name="Path 472" transform="translate(-7.559 -351.104)"/>
    </g>
    <path id="Path_473" d="M35.268 26.892h-1.281V15.475a2.021 2.021 0 0 0-2.019-2.019h-5.874V9.291a.549.549 0 0 0-.548-.549.548.548 0 0 0-.546.548v4.165h-4.938a2.012 2.012 0 0 0-1.471.639 2.012 2.012 0 0 0-1.471-.639h-5.875V2.019a.924.924 0 0 1 .923-.922h2.483v2.009A1.249 1.249 0 0 0 15.9 4.354h4.267a1.248 1.248 0 0 0 1.245-1.248V1.1h2.665a.924.924 0 0 1 .923.92v4.694a.548.548 0 1 0 1.1 0v-4.7A2.021 2.021 0 0 0 24.075 0H12.168a2.021 2.021 0 0 0-2.018 2.019v11.436H5.214a2.021 2.021 0 0 0-2.019 2.019v11.418H1.848a1.851 1.851 0 0 0 0 3.7h33.42a1.851 1.851 0 0 0 0-3.7zM20.314 3.106a.152.152 0 0 1-.149.151H15.9a.153.153 0 0 1-.151-.151V1.1h4.567zm3.327 11.447h4.566v2.009a.152.152 0 0 1-.15.149h-4.266a.152.152 0 0 1-.151-.149zm-3.578 0h2.483v2.009a1.248 1.248 0 0 0 1.246 1.246h4.265a1.248 1.248 0 0 0 1.243-1.247v-2.009h2.666a.924.924 0 0 1 .923.922v11.418h-13.75V15.475a.924.924 0 0 1 .923-.923zm-11.268 0h4.564v2.009a.151.151 0 0 1-.149.149H8.943a.149.149 0 0 1-.149-.149zM35.268 29.5H1.848a.754.754 0 0 1 0-1.507h7.715a.549.549 0 0 0 0-1.1H4.291V15.475a.924.924 0 0 1 .923-.922H7.7v2.009a1.247 1.247 0 0 0 1.244 1.246h4.266a1.247 1.247 0 0 0 1.244-1.246v-2.01h2.666a.924.924 0 0 1 .923.922v11.418h-5.969a.549.549 0 0 0 0 1.1h23.194a.754.754 0 1 1 0 1.507zm0 0" data-name="Path 473"/>
</svg>
