<svg xmlns="http://www.w3.org/2000/svg" width="31.771" height="27.861" viewBox="0 0 31.771 27.861">
    <defs>
        <style>
            .cls-1{fill:#606060}
        </style>
    </defs>
    <g id="noun_people_458671" transform="translate(0 -35.538)">
        <g id="Group_705" data-name="Group 705" transform="translate(0 35.538)">
            <path id="Path_482" d="M8.571 38.294H6.019A1.019 1.019 0 0 0 5 39.313v3.681a1.019 1.019 0 0 0 1.018 1.019h.247v5.367a.785.785 0 0 0 .785.785h1.195a.786.786 0 0 0 .786-.785v-4.671a2.645 2.645 0 0 1-.46-1.488z" class="cls-1" data-name="Path 482" transform="translate(-5 -28.496)"/>
            <path id="Path_483" d="M9.593 28.077a1.587 1.587 0 0 0-1.587 1.587 1.579 1.579 0 0 0 2.569 1.236 2.657 2.657 0 0 1 .6-1.2v-.043a1.587 1.587 0 0 0-1.582-1.58z" class="cls-1" data-name="Path 483" transform="translate(-6.945 -21.886)"/>
            <path id="Path_484" d="M86.593 38.294h-2.552v4.927a2.642 2.642 0 0 1-.461 1.488v4.671a.785.785 0 0 0 .785.785h1.195a.785.785 0 0 0 .786-.785v-5.367h.247a1.019 1.019 0 0 0 1.019-1.019v-3.681a1.019 1.019 0 0 0-1.019-1.019z" class="cls-1" data-name="Path 484" transform="translate(-55.84 -28.496)"/>
            <path id="Path_485" d="M84.587 31.251A1.587 1.587 0 1 0 83 29.663v.042a2.65 2.65 0 0 1 .6 1.2 1.571 1.571 0 0 0 .987.346z" class="cls-1" data-name="Path 485" transform="translate(-55.465 -21.885)"/>
            <path id="Path_486" d="M23.693 33.792c0-.061.006-.121.009-.181h-3.654a1.426 1.426 0 0 0-1.426 1.427v5.153a1.427 1.427 0 0 0 1.426 1.427h.347v7.513a1.1 1.1 0 0 0 1.1 1.1h1.672a1.1 1.1 0 0 0 1.1-1.1V42.2a3.052 3.052 0 0 1-.573-1.781z" class="cls-1" data-name="Path 486" transform="translate(-13.813 -25.466)"/>
            <path id="Path_487" d="M25.053 19.308a2.221 2.221 0 1 0 2.221 2.222 2.222 2.222 0 0 0-2.221-2.222z" class="cls-1" data-name="Path 487" transform="translate(-16.536 -16.212)"/>
            <path id="Path_488" d="M69.607 33.612h-3.654c0 .06.009.12.009.181v6.626a3.051 3.051 0 0 1-.573 1.781v6.932a1.1 1.1 0 0 0 1.1 1.1h1.671a1.1 1.1 0 0 0 1.1-1.1v-7.513h.346a1.427 1.427 0 0 0 1.427-1.427v-5.153a1.425 1.425 0 0 0-1.426-1.427z" class="cls-1" data-name="Path 488" transform="translate(-44.071 -25.467)"/>
            <path id="Path_489" d="M44.2 28.93h-5.872a1.834 1.834 0 0 0-1.834 1.834v6.626a1.834 1.834 0 0 0 1.833 1.834h.445v9.661a1.414 1.414 0 0 0 1.414 1.415h2.149a1.414 1.414 0 0 0 1.414-1.414v-9.66h.451a1.834 1.834 0 0 0 1.83-1.836v-6.626a1.834 1.834 0 0 0-1.83-1.834z" class="cls-1" data-name="Path 489" transform="translate(-25.376 -22.437)"/>
            <path id="Path_490" d="M43.212 15.792a2.856 2.856 0 1 0-1.306-2.4 2.842 2.842 0 0 0 1.306 2.4z" class="cls-1" data-name="Path 490" transform="translate(-28.878 -10.538)"/>
            <path id="Path_491" d="M66.8 23.752a2.225 2.225 0 1 0-1.552-.633 2.212 2.212 0 0 0 1.552.633z" class="cls-1" data-name="Path 491" transform="translate(-43.546 -16.212)"/>
        </g>
    </g>
</svg>
