<svg id="Name" xmlns="http://www.w3.org/2000/svg" width="48" height="48" viewBox="0 0 48 48">
  <rect id="Rectangle_3" data-name="Rectangle 3" width="48" height="48" fill="none"/>
  <g id="Name-2" data-name="Name" transform="translate(16 15)">
    <g id="Ellipse_31" data-name="Ellipse 31" transform="translate(5)" fill="none" stroke="#000" stroke-width="1">
      <circle cx="3.5" cy="3.5" r="3.5" stroke="none"/>
      <circle cx="3.5" cy="3.5" r="3" fill="none"/>
    </g>
    <g id="Intersection_1" data-name="Intersection 1" transform="translate(0 10)" fill="none">
      <path d="M.087,9A7.141,7.141,0,0,1,0,7.879C0,3.527,3.806,0,8.5,0S17,3.527,17,7.879A7.2,7.2,0,0,1,16.913,9Z" stroke="none"/>
      <path d="M 15.99883842468262 8 C 15.99961185455322 7.95966100692749 16 7.919278621673584 16 7.878910064697266 C 16 4.085869789123535 12.63551044464111 1 8.5 1 C 4.364490032196045 1 1 4.085869789123535 1 7.878910064697266 C 1 7.919310569763184 1.000388026237488 7.959660053253174 1.001162767410278 8 L 15.99883842468262 8 M 16.91308975219727 9 L 0.08739999681711197 9 C 0.029789999127388 8.636719703674316 0 8.263669967651367 0 7.878910064697266 C 0 3.527339935302734 3.806149959564209 0 8.5 0 C 13.19433975219727 0 17 3.527339935302734 17 7.878910064697266 C 17 8.263669967651367 16.9702205657959 8.636719703674316 16.91308975219727 9 Z" stroke="none" fill="#000"/>
    </g>
  </g>
</svg>
