<svg xmlns="http://www.w3.org/2000/svg" width="79.138" height="85.959" viewBox="0 0 79.138 85.959">
    <defs>
        <style>
            .cls-1{fill:#fbb040}
        </style>
    </defs>
    <g id="package" transform="translate(-18.8)">
        <path id="Path_497" d="M97.9 20.265a2.253 2.253 0 0 0-.218-.962 2.1 2.1 0 0 0-1.47-1.161L59.258.218a2.192 2.192 0 0 0-1.9 0L20.034 18.306a2.185 2.185 0 0 0-1.234 1.887v45.483a2.162 2.162 0 0 0 1.234 1.959l37.319 18.088c.018 0 .018 0 .036.018a.644.644 0 0 1 .163.073c.018 0 .036.018.073.018l.163.054c.018 0 .036.018.054.018.054.018.127.018.181.036h.054c.073 0 .163.018.236.018a1.034 1.034 0 0 0 .236-.018h.051a.645.645 0 0 0 .181-.036c.018 0 .036-.018.054-.018l.165-.054c.018 0 .036-.018.073-.018a.645.645 0 0 0 .163-.073c.018 0 .018 0 .036-.018L96.7 67.581a2.194 2.194 0 0 0 1.234-1.959V20.32c-.034-.02-.034-.037-.034-.055zM58.3 4.59l32.362 15.693-11.92 5.787-32.365-15.692zm0 31.387L25.93 20.283l15.457-7.493 32.367 15.694zM23.154 23.785l32.965 15.983v40.513L23.154 64.3zm37.319 56.5V39.768l15.476-7.511v10.6a2.177 2.177 0 1 0 4.354 0V30.135l13.244-6.422v40.511z" class="cls-1" data-name="Path 497"/>
    </g>
</svg>
