<svg xmlns="http://www.w3.org/2000/svg" id="photo-camera" width="45.964" height="39.836" viewBox="0 0 45.964 39.836">
    <defs>
        <style>
            .cls-1{fill:#e9e9e9}
        </style>
    </defs>
    <g id="Group_639" data-name="Group 639">
        <path id="Path_455" d="M44.169 44.464a5.9 5.9 0 0 0-4.333-1.8h-5.363l-1.221-3.256a4.447 4.447 0 0 0-1.664-2.023 4.264 4.264 0 0 0-2.478-.85H16.854a4.264 4.264 0 0 0-2.478.85 4.447 4.447 0 0 0-1.664 2.023l-1.221 3.256H6.129a5.905 5.905 0 0 0-4.333 1.8A5.9 5.9 0 0 0 0 48.8v21.45a5.9 5.9 0 0 0 1.8 4.33 5.9 5.9 0 0 0 4.333 1.8h33.702a6.13 6.13 0 0 0 6.128-6.129V48.8a5.9 5.9 0 0 0-1.794-4.336zM30.559 67.1a10.329 10.329 0 0 1-7.577 3.148 10.329 10.329 0 0 1-7.577-3.148 10.692 10.692 0 0 1 0-15.154 10.328 10.328 0 0 1 7.577-3.146 10.329 10.329 0 0 1 7.577 3.148 10.692 10.692 0 0 1 0 15.154z" class="cls-1" data-name="Path 455" transform="translate(0 -36.54)"/>
        <path id="Path_456" d="M198.751 228.4a6.907 6.907 0 1 0 4.872 2.023 6.64 6.64 0 0 0-4.872-2.023z" class="cls-1" data-name="Path 456" transform="translate(-175.641 -212.315)"/>
    </g>
</svg>
