<svg xmlns="http://www.w3.org/2000/svg" width="19.358" height="25.283" viewBox="0 0 19.358 25.283">
    <defs>
        <style>
            .cls-1{fill:#727272}
        </style>
    </defs>
    <g id="Group_381" data-name="Group 381" transform="translate(-15 -201)">
        <g id="graduate-student-avatar" transform="translate(-37.031 201)">
            <g id="Group_348" data-name="Group 348" transform="translate(52.032)">
                <g id="Group_347" data-name="Group 347">
                    <path id="Path_410" d="M69.439 255.6a1.867 1.867 0 0 0-1.065-.909l-2.9-1.335-1.393-1.175-2.24 2.219.966 6.459a.085.085 0 0 1-.015.063l-1.01 1.383a.085.085 0 0 1-.138 0l-1.01-1.383a.085.085 0 0 1-.016-.063l.966-6.459-2.239-2.227-1.393 1.175-2.9 1.335a1.884 1.884 0 0 0-1.065.909S50.83 263.1 52.54 263.1h18.342c1.709 0-1.443-7.5-1.443-7.5z" class="cls-1" data-name="Path 410" transform="translate(-52.032 -237.819)"/>
                    <path id="Path_411" d="M94.052 7.487a.162.162 0 0 0 .145-.18q-.049-.416-.1-.831l-.068-.58a.162.162 0 0 0-.175-.142h-.125V3.807l.066-.024.219-.079a.468.468 0 0 0 0-.88L86.281.028a.467.467 0 0 0-.318 0l-7.737 2.8a.468.468 0 0 0 0 .88l2.86 1.034a7 7 0 0 0-.286 2.18c.05 4.635 2.741 7.4 5.23 7.4 2.46 0 5.18-2.764 5.23-7.4a7.064 7.064 0 0 0-.267-2.12l2.08-.752v1.709h-.126a.161.161 0 0 0-.175.142l-.163 1.411a.162.162 0 0 0 .035.12.159.159 0 0 0 .11.059m-6.728 5.7c-2.172 0-3.671-2.544-3.973-5.088-.28-2.352 3.122-2.462 3.32-1 .061.448-.454.928-.4 1.113.297.91 5.064-2.986 5.027-.116-.019 2.029-1.9 5.09-3.969 5.09z" class="cls-1" data-name="Path 411" transform="translate(-76.443)"/>
                </g>
            </g>
        </g>
    </g>
</svg>
