<svg xmlns="http://www.w3.org/2000/svg" width="31.507" height="28.645" viewBox="0 0 31.507 28.645">
    <defs>
        <style>
            .cls-1{fill:url(#linear-gradient)}
        </style>
        <linearGradient id="linear-gradient" x1=".5" x2=".5" y2="1" gradientUnits="objectBoundingBox">
            <stop offset="0" stop-color="#ef811d"/>
            <stop offset="1" stop-color="#fea228"/>
        </linearGradient>
    </defs>
    <g id="noun_buy_1864317" transform="translate(-2.492 -7)">
        <g id="Group_706" data-name="Group 706" transform="translate(2.492 7)">
            <path id="Path_492" d="M24.063 8.593h1.593l1.958 7.833a.779.779 0 0 0 .763.6h8.1a.786.786 0 0 0 .763-.6l1.527-6.306A.766.766 0 0 0 38 9.157H27.416l-.4-1.527a.746.746 0 0 0-.729-.63H24.1a.808.808 0 0 0-.8.8.779.779 0 0 0 .763.793z" class="cls-1" data-name="Path 492" transform="translate(-16.393 -7)"/>
            <circle id="Ellipse_33" cx="1.394" cy="1.394" r="1.394" class="cls-1" data-name="Ellipse 33" transform="translate(11.719 10.754)"/>
            <circle id="Ellipse_34" cx="1.394" cy="1.394" r="1.394" class="cls-1" data-name="Ellipse 34" transform="translate(17.229 10.754)"/>
            <path id="Path_493" d="M65.519 33.076a27.3 27.3 0 0 1-1.161 2.824 3.451 3.451 0 0 1-.3 2.855 5.232 5.232 0 0 1-.5.8c-.5.7-1.195 1.427-1.925 2.257l-.166.166a.563.563 0 0 1-.73.1.535.535 0 0 1-.1-.83.88.88 0 0 0 .166-.2 17.409 17.409 0 0 0 2.29-2.821c.73-1.427.232-2.357-.465-2.788a1.315 1.315 0 0 0-1.792.3 33.816 33.816 0 0 1-2.323 2.855 24.313 24.313 0 0 0-2.456 3.153 15.213 15.213 0 0 0-1.527 5.975c-.066 1.228-.1 2.655-.133 3.518a.779.779 0 0 0 .763.8h5.012a.779.779 0 0 0 .763-.8V49.8a1.1 1.1 0 0 1 .431-.863 25.535 25.535 0 0 0 4.415-3.817c2.058-2.39 2.788-9.46 2.888-11.551a1.6 1.6 0 0 0-3.15-.493z" class="cls-1" data-name="Path 493" transform="translate(-37.171 -23.583)"/>
            <path id="Path_494" d="M15.141 41.983a25.007 25.007 0 0 0-2.456-3.153 29.245 29.245 0 0 1-2.323-2.855 1.256 1.256 0 0 0-1.792-.3c-.7.4-1.195 1.361-.465 2.788a15.773 15.773 0 0 0 2.29 2.821.88.88 0 0 1 .166.2.561.561 0 0 1-.1.83.606.606 0 0 1-.73-.1l-.166-.166a25.218 25.218 0 0 1-1.925-2.257 7.588 7.588 0 0 1-.5-.8 3.451 3.451 0 0 1-.3-2.855c-.5-1.129-.963-2.157-1.162-2.821a1.626 1.626 0 0 0-3.186.631c.1 2.091.863 9.161 2.888 11.551a25.7 25.7 0 0 0 4.42 3.821 1.053 1.053 0 0 1 .431.863v1.427a.8.8 0 0 0 .763.8H16a.759.759 0 0 0 .763-.8c-.033-.863-.066-2.29-.133-3.518a14.066 14.066 0 0 0-1.489-6.107z" class="cls-1" data-name="Path 494" transform="translate(-2.492 -23.76)"/>
        </g>
    </g>
</svg>
