<svg xmlns="http://www.w3.org/2000/svg" width="23.441" height="19.727" viewBox="0 0 23.441 19.727">
    <defs>
        <style>
            .cls-1{fill:#727272}
        </style>
    </defs>
    <g id="multiple-users-silhouette" transform="translate(0 -6.348)">
        <path id="Path_436" d="M14.146 9.734a4.259 4.259 0 0 1 1.982 3.166 3.436 3.436 0 1 0-1.982-3.164zm-2.252 7.039a3.438 3.438 0 1 0-3.439-3.438 3.438 3.438 0 0 0 3.439 3.438zm1.458.234h-2.917a4.407 4.407 0 0 0-4.4 4.4v3.568l.009.056.246.077a20.037 20.037 0 0 0 5.985.965 12.287 12.287 0 0 0 5.226-.981l.23-.116h.025v-3.567a4.406 4.406 0 0 0-4.404-4.402zm5.688-3.549h-2.895a4.237 4.237 0 0 1-1.308 2.951 5.231 5.231 0 0 1 3.736 5.005v1.1a11.845 11.845 0 0 0 4.614-.969l.23-.116h.025V17.86a4.407 4.407 0 0 0-4.402-4.402zm-13.179-.234a3.415 3.415 0 0 0 1.828-.531 4.255 4.255 0 0 1 1.6-2.714c0-.064.01-.128.01-.193a3.438 3.438 0 1 0-3.437 3.437zm3.087 3.185a4.239 4.239 0 0 1-1.307-2.935c-.107-.008-.214-.016-.323-.016H4.4A4.407 4.407 0 0 0 0 17.86v3.568l.009.055.246.078a20.638 20.638 0 0 0 4.957.932v-1.078a5.232 5.232 0 0 1 3.737-5.006z" class="cls-1" data-name="Path 436"/>
    </g>
</svg>
