<svg xmlns="http://www.w3.org/2000/svg" width="31.429" height="26.449" viewBox="0 0 31.429 26.449">
    <defs>
        <style>
            .cls-1{fill:#606060}
        </style>
    </defs>
    <g id="multiple-users-silhouette" transform="translate(-3)">
        <path id="Path_436" d="M18.966 10.888a5.711 5.711 0 0 1 2.658 4.243 4.608 4.608 0 1 0-2.658-4.243zm-3.02 9.438a4.609 4.609 0 1 0-4.61-4.609 4.609 4.609 0 0 0 4.61 4.608zm1.955.314H13.99a5.909 5.909 0 0 0-5.9 5.9v4.783l.01.077.329.1a26.865 26.865 0 0 0 8.026 1.3 16.474 16.474 0 0 0 7.007-1.316l.308-.156h.03v-4.786a5.907 5.907 0 0 0-5.9-5.902zm7.626-4.759h-3.88a5.681 5.681 0 0 1-1.753 3.957 7.013 7.013 0 0 1 5.006 6.711v1.474a15.882 15.882 0 0 0 6.186-1.3l.308-.156h.033v-4.784a5.908 5.908 0 0 0-5.899-5.902zm-17.67-.314a4.579 4.579 0 0 0 2.451-.712 5.7 5.7 0 0 1 2.144-3.638c0-.086.013-.172.013-.259a4.609 4.609 0 1 0-4.609 4.609zM12 19.838a5.684 5.684 0 0 1-1.754-3.938c-.144-.011-.286-.022-.433-.022H5.9a5.908 5.908 0 0 0-5.9 5.9v4.784l.012.074.329.1a27.671 27.671 0 0 0 6.646 1.249v-1.436A7.014 7.014 0 0 1 12 19.838z" class="cls-1" data-name="Path 436" transform="translate(3 -6.348)"/>
    </g>
</svg>
