<svg id="Website_URL" data-name="Website URL" xmlns="http://www.w3.org/2000/svg" width="48" height="48" viewBox="0 0 48 48">
  <rect id="Rectangle_3" data-name="Rectangle 3" width="48" height="48" fill="none"/>
  <path id="Path_512" data-name="Path 512" d="M11.675,234.735a.536.536,0,0,0,.1.114l.009.008a10.98,10.98,0,0,0,7.881,3.692.538.538,0,0,0,.074.006l.042,0,.223,0,.223,0,.042,0a.536.536,0,0,0,.074-.006,10.98,10.98,0,0,0,7.882-3.693l.007,0a.533.533,0,0,0,.1-.117,10.982,10.982,0,0,0,0-14.366.536.536,0,0,0-.1-.117l-.008-.006a10.98,10.98,0,0,0-7.884-3.691.534.534,0,0,0-.115,0l-.221,0-.221,0a.537.537,0,0,0-.115,0,10.98,10.98,0,0,0-7.883,3.692l-.009.008a.536.536,0,0,0-.1.114,10.982,10.982,0,0,0,0,14.367Zm.48-13.248a11,11,0,0,0,1.991,1.607,14.884,14.884,0,0,0-.645,3.937H10.09a9.913,9.913,0,0,1,2.066-5.544Zm15.7,0a9.91,9.91,0,0,1,2.064,5.542H26.5a14.861,14.861,0,0,0-.641-3.927,10.893,10.893,0,0,0,1.99-1.615Zm0,12.142a10.847,10.847,0,0,0-1.989-1.607,14.8,14.8,0,0,0,.641-3.918h3.412a9.856,9.856,0,0,1-2.063,5.525Zm-8.4-3.279a10.909,10.909,0,0,0-4.348,1.141,14.071,14.071,0,0,1-.522-3.386h4.869Zm0,1.077v5.837a9.435,9.435,0,0,1-4-4.756A10.026,10.026,0,0,1,19.448,231.428Zm1.076,5.837v-5.84a9.585,9.585,0,0,1,4.008,1.073A9.1,9.1,0,0,1,20.523,237.266Zm0-6.916v-2.244h4.9a14.044,14.044,0,0,1-.536,3.374A10.876,10.876,0,0,0,20.523,230.35Zm4.9-3.319h-4.9v-2.279a10.868,10.868,0,0,0,4.368-1.113,13.594,13.594,0,0,1,.536,3.392Zm-4.9-3.355v-5.838a9.1,9.1,0,0,1,4.007,4.766A9.6,9.6,0,0,1,20.523,223.675Zm-1.076-5.838v5.836a10.014,10.014,0,0,1-4-1.081,9.433,9.433,0,0,1,4-4.755Zm0,6.913v2.28H14.578a13.633,13.633,0,0,1,.522-3.4,10.884,10.884,0,0,0,4.348,1.123ZM13.5,228.106a14.789,14.789,0,0,0,.645,3.925,11.007,11.007,0,0,0-1.991,1.607,9.873,9.873,0,0,1-2.066-5.531Zm-.64,6.334a9.909,9.909,0,0,1,1.659-1.381,10.66,10.66,0,0,0,2.892,4.076,9.935,9.935,0,0,1-4.552-2.7Zm9.729,2.7a10.662,10.662,0,0,0,2.9-4.085,9.8,9.8,0,0,1,1.658,1.388,9.935,9.935,0,0,1-4.554,2.7Zm4.554-16.472a9.8,9.8,0,0,1-1.658,1.389,10.661,10.661,0,0,0-2.9-4.086,9.935,9.935,0,0,1,4.554,2.7Zm-9.73-2.7a10.655,10.655,0,0,0-2.893,4.076,9.909,9.909,0,0,1-1.659-1.381,9.934,9.934,0,0,1,4.552-2.7Z" transform="translate(4 -203.551)"/>
</svg>
